<svg xmlns="http://www.w3.org/2000/svg" width="600" height="400" viewBox="0 0 600 400" fill="none">
  <rect width="600" height="400" fill="#F3F4F6"/>
  <circle cx="300" cy="150" r="80" fill="#0066CC" opacity="0.2"/>
  <circle cx="200" cy="250" r="60" fill="#FF9900" opacity="0.2"/>
  <circle cx="400" cy="220" r="70" fill="#0066CC" opacity="0.2"/>
  
  <!-- Buku -->
  <rect x="220" y="140" width="160" height="180" rx="5" fill="#FFFFFF" stroke="#0066CC" stroke-width="3"/>
  <rect x="220" y="140" width="80" height="180" rx="5" fill="#FFFFFF" stroke="#0066CC" stroke-width="3"/>
  <line x1="300" y1="140" x2="300" y2="320" stroke="#0066CC" stroke-width="3"/>
  
  <!-- Garis-garis buku -->
  <line x1="240" y1="170" x2="280" y2="170" stroke="#0066CC" stroke-width="2"/>
  <line x1="240" y1="190" x2="280" y2="190" stroke="#0066CC" stroke-width="2"/>
  <line x1="240" y1="210" x2="280" y2="210" stroke="#0066CC" stroke-width="2"/>
  <line x1="240" y1="230" x2="280" y2="230" stroke="#0066CC" stroke-width="2"/>
  <line x1="240" y1="250" x2="280" y2="250" stroke="#0066CC" stroke-width="2"/>
  <line x1="240" y1="270" x2="280" y2="270" stroke="#0066CC" stroke-width="2"/>
  
  <line x1="320" y1="170" x2="360" y2="170" stroke="#0066CC" stroke-width="2"/>
  <line x1="320" y1="190" x2="360" y2="190" stroke="#0066CC" stroke-width="2"/>
  <line x1="320" y1="210" x2="360" y2="210" stroke="#0066CC" stroke-width="2"/>
  <line x1="320" y1="230" x2="360" y2="230" stroke="#0066CC" stroke-width="2"/>
  <line x1="320" y1="250" x2="360" y2="250" stroke="#0066CC" stroke-width="2"/>
  <line x1="320" y1="270" x2="360" y2="270" stroke="#0066CC" stroke-width="2"/>
  
  <!-- Pensil -->
  <rect x="380" y="160" width="8" height="120" rx="2" transform="rotate(30 380 160)" fill="#FF9900"/>
  <polygon points="380,160 388,160 384,145" transform="rotate(30 380 160)" fill="#333333"/>
  
  <!-- Komputer -->
  <rect x="120" y="200" width="80" height="60" rx="3" fill="#FFFFFF" stroke="#0066CC" stroke-width="2"/>
  <rect x="110" y="260" width="100" height="10" rx="3" fill="#FFFFFF" stroke="#0066CC" stroke-width="2"/>
  <rect x="150" y="260" width="20" height="20" rx="3" fill="#FFFFFF" stroke="#0066CC" stroke-width="2"/>
  <rect x="130" y="210" width="60" height="40" rx="2" fill="#0066CC" opacity="0.2"/>
</svg>
